<?xml version="1.0" encoding="UTF-8" standalone="no"?>
<!DOCTYPE svg PUBLIC "-//W3C//DTD SVG 1.1//EN"
 "http://www.w3.org/Graphics/SVG/1.1/DTD/svg11.dtd">
<!-- Generated by graphviz version 2.40.1 (20161225.0304)
 -->
<!-- Title: dependencies Pages: 1 -->
<svg width="504pt" height="284pt"
 viewBox="0.00 0.00 504.00 284.00" xmlns="http://www.w3.org/2000/svg" xmlns:xlink="http://www.w3.org/1999/xlink">
<g id="graph0" class="graph" transform="scale(1 1) rotate(0) translate(4 280)">
<title>dependencies</title>
<polygon fill="#ffffff" stroke="transparent" points="-4,4 -4,-280 500,-280 500,4 -4,4"/>
<text text-anchor="start" x="227.0091" y="-42.4" font-family="sans-serif" font-weight="bold" font-size="14.00" fill="#000000">Legend</text>
<polygon fill="#ffffb3" stroke="transparent" points="14,-10 14,-30 34,-30 34,-10 14,-10"/>
<text text-anchor="start" x="37.629" y="-15.4" font-family="sans-serif" font-size="14.00" fill="#000000"> &#160;Declarations</text>
<polygon fill="#8dd3c7" stroke="transparent" points="127,-10 127,-30 147,-30 147,-10 127,-10"/>
<text text-anchor="start" x="150.7251" y="-15.4" font-family="sans-serif" font-size="14.00" fill="#000000"> &#160;Module</text>
<polygon fill="#80b1d3" stroke="transparent" points="213,-10 213,-30 233,-30 233,-10 213,-10"/>
<text text-anchor="start" x="236.7812" y="-15.4" font-family="sans-serif" font-size="14.00" fill="#000000"> &#160;Bootstrap</text>
<polygon fill="#fdb462" stroke="transparent" points="310,-10 310,-30 330,-30 330,-10 310,-10"/>
<text text-anchor="start" x="333.6732" y="-15.4" font-family="sans-serif" font-size="14.00" fill="#000000"> &#160;Providers</text>
<polygon fill="#fb8072" stroke="transparent" points="406,-10 406,-30 426,-30 426,-10 406,-10"/>
<text text-anchor="start" x="429.7258" y="-15.4" font-family="sans-serif" font-size="14.00" fill="#000000"> &#160;Exports</text>
<g id="clust1" class="cluster">
<title>cluster_AppModule</title>
<polygon fill="none" stroke="#000000" stroke-dasharray="1,5" points="86,-70 86,-268 226,-268 226,-70 86,-70"/>
</g>
<g id="clust2" class="cluster">
<title>cluster_AppModule_declarations</title>
<polygon fill="none" stroke="#000000" points="95,-78 95,-130 217,-130 217,-78 95,-78"/>
</g>
<g id="clust6" class="cluster">
<title>cluster_AppModule_bootstrap</title>
<polygon fill="none" stroke="#000000" points="94,-208 94,-260 218,-260 218,-208 94,-208"/>
</g>
<g id="clust8" class="cluster">
<title>cluster_CountdownTimerModule</title>
<polygon fill="none" stroke="#000000" stroke-dasharray="1,5" points="234,-70 234,-268 410,-268 410,-70 234,-70"/>
</g>
<g id="clust9" class="cluster">
<title>cluster_CountdownTimerModule_declarations</title>
<polygon fill="none" stroke="#000000" points="256,-78 256,-130 388,-130 388,-78 256,-78"/>
</g>
<g id="clust12" class="cluster">
<title>cluster_CountdownTimerModule_exports</title>
<polygon fill="none" stroke="#000000" points="254,-208 254,-260 390,-260 390,-208 254,-208"/>
</g>
<!-- AppComponent -->
<g id="node1" class="node">
<title>AppComponent</title>
<polygon fill="#ffffb3" stroke="#000000" points="208.9399,-122 103.0601,-122 103.0601,-86 208.9399,-86 208.9399,-122"/>
<text text-anchor="middle" x="156" y="-99.8" font-family="Times,serif" font-size="14.00" fill="#000000">AppComponent</text>
</g>
<!-- AppModule -->
<g id="node2" class="node">
<title>AppModule</title>
<polygon fill="#8dd3c7" stroke="#000000" points="197.6571,-187 194.6571,-191 173.6571,-191 170.6571,-187 114.3429,-187 114.3429,-151 197.6571,-151 197.6571,-187"/>
<text text-anchor="middle" x="156" y="-164.8" font-family="Times,serif" font-size="14.00" fill="#000000">AppModule</text>
</g>
<!-- AppComponent&#45;&gt;AppModule -->
<g id="edge1" class="edge">
<title>AppComponent&#45;&gt;AppModule</title>
<path fill="none" stroke="#000000" d="M156,-122.1061C156,-122.1061 156,-140.991 156,-140.991"/>
<polygon fill="#000000" stroke="#000000" points="152.5001,-140.9909 156,-150.991 159.5001,-140.991 152.5001,-140.9909"/>
</g>
<!-- AppComponent  -->
<g id="node3" class="node">
<title>AppComponent </title>
<polygon fill="#80b1d3" stroke="#000000" points="210.439,-252 101.561,-252 101.561,-216 210.439,-216 210.439,-252"/>
<text text-anchor="middle" x="156" y="-229.8" font-family="Times,serif" font-size="14.00" fill="#000000">AppComponent </text>
</g>
<!-- AppModule&#45;&gt;AppComponent  -->
<g id="edge2" class="edge">
<title>AppModule&#45;&gt;AppComponent </title>
<path fill="none" stroke="#000000" stroke-dasharray="1,5" d="M156,-187.1061C156,-187.1061 156,-205.991 156,-205.991"/>
<polygon fill="#000000" stroke="#000000" points="152.5001,-205.9909 156,-215.991 159.5001,-205.991 152.5001,-205.9909"/>
</g>
<!-- CountdownTimer -->
<g id="node4" class="node">
<title>CountdownTimer</title>
<polygon fill="#ffffb3" stroke="#000000" points="379.5437,-122 264.4563,-122 264.4563,-86 379.5437,-86 379.5437,-122"/>
<text text-anchor="middle" x="322" y="-99.8" font-family="Times,serif" font-size="14.00" fill="#000000">CountdownTimer</text>
</g>
<!-- CountdownTimerModule -->
<g id="node5" class="node">
<title>CountdownTimerModule</title>
<polygon fill="#8dd3c7" stroke="#000000" points="401.5926,-187 398.5926,-191 377.5926,-191 374.5926,-187 242.4074,-187 242.4074,-151 401.5926,-151 401.5926,-187"/>
<text text-anchor="middle" x="322" y="-164.8" font-family="Times,serif" font-size="14.00" fill="#000000">CountdownTimerModule</text>
</g>
<!-- CountdownTimer&#45;&gt;CountdownTimerModule -->
<g id="edge3" class="edge">
<title>CountdownTimer&#45;&gt;CountdownTimerModule</title>
<path fill="none" stroke="#000000" d="M322,-122.1061C322,-122.1061 322,-140.991 322,-140.991"/>
<polygon fill="#000000" stroke="#000000" points="318.5001,-140.9909 322,-150.991 325.5001,-140.991 318.5001,-140.9909"/>
</g>
<!-- CountdownTimer  -->
<g id="node6" class="node">
<title>CountdownTimer </title>
<polygon fill="#fb8072" stroke="#000000" points="381.5428,-252 262.4572,-252 262.4572,-216 381.5428,-216 381.5428,-252"/>
<text text-anchor="middle" x="322" y="-229.8" font-family="Times,serif" font-size="14.00" fill="#000000">CountdownTimer </text>
</g>
<!-- CountdownTimerModule&#45;&gt;CountdownTimer  -->
<g id="edge4" class="edge">
<title>CountdownTimerModule&#45;&gt;CountdownTimer </title>
<path fill="none" stroke="#000000" stroke-dasharray="5,2" d="M322,-187.1061C322,-187.1061 322,-205.991 322,-205.991"/>
<polygon fill="#000000" stroke="#000000" points="318.5001,-205.9909 322,-215.991 325.5001,-205.991 318.5001,-205.9909"/>
</g>
</g>
</svg>
